<?xml version="1.0" encoding="UTF-8" standalone="no"?>
<!DOCTYPE svg PUBLIC "-//W3C//DTD SVG 1.1//EN" "http://www.w3.org/Graphics/SVG/1.1/DTD/svg11.dtd">
<svg xmlns="http://www.w3.org/2000/svg" version="1.1" viewBox="0.00 0.00 1024.00 547.00">
<g stroke-width="2.00" fill="none" stroke-linecap="butt">
<path stroke="#f8fbf5" vector-effect="non-scaling-stroke" d="
  M 792.62 547.00
  C 804.28 545.58 817.19 544.93 828.11 541.16
  A 1.38 1.37 62.8 0 0 828.78 539.07
  Q 828.51 538.67 826.54 537.88
  Q 825.14 537.32 812.91 533.68
  Q 795.72 528.57 787.42 513.90
  C 783.76 507.42 782.59 499.64 778.88 493.34
  C 774.14 485.30 766.19 480.17 760.35 473.00
  Q 754.43 465.72 750.82 457.08
  Q 745.52 444.36 739.94 430.26
  Q 736.25 420.95 729.71 415.86
  C 720.13 408.41 713.63 403.57 707.65 394.12
  C 703.14 386.99 699.94 380.20 694.89 374.92
  Q 688.52 368.26 679.70 363.31
  Q 672.86 359.48 648.76 345.42"
/>
<path stroke="#daa4a9" vector-effect="non-scaling-stroke" d="
  M 648.76 345.42
  Q 652.58 331.32 654.40 320.19
  Q 656.62 306.56 657.78 301.90
  Q 659.54 294.84 660.33 287.62
  Q 661.02 281.30 663.70 271.00
  C 664.80 266.79 665.06 261.26 665.87 257.63
  Q 670.77 235.36 674.30 211.77
  Q 674.45 210.71 674.94 210.03
  A 0.44 0.44 0.0 0 1 675.73 210.25
  Q 676.18 215.23 677.11 219.68
  C 679.83 232.71 682.16 241.71 684.44 254.41
  Q 685.50 260.37 688.10 270.57
  C 688.76 273.16 689.22 277.29 689.59 279.23
  Q 691.03 286.72 700.78 331.35
  C 701.99 336.90 702.36 341.07 703.67 345.87
  C 706.04 354.56 707.43 364.21 709.38 372.44
  Q 711.58 381.74 713.01 389.74
  C 714.01 395.27 718.04 399.70 724.23 397.94
  Q 728.19 396.81 729.17 393.14
  Q 729.89 390.41 737.02 355.66
  Q 738.53 348.29 739.25 345.40
  C 741.13 337.85 742.29 329.86 743.99 322.66
  C 746.82 310.65 748.60 299.34 751.40 287.60
  Q 752.37 283.53 753.81 275.33
  Q 754.78 269.79 756.43 263.09
  C 758.42 255.00 759.03 250.12 760.61 242.29
  Q 761.12 239.74 763.16 231.08
  Q 764.46 225.52 765.05 219.74"
/>
<path stroke="#dfb9ba" vector-effect="non-scaling-stroke" d="
  M 765.05 219.74
  Q 766.06 215.82 766.84 211.79
  Q 766.91 211.41 767.17 211.26
  A 0.29 0.29 0.0 0 1 767.60 211.45
  C 769.74 221.87 771.07 232.23 772.79 241.22
  Q 776.07 258.32 779.57 279.07
  Q 781.09 288.10 781.73 290.91
  C 782.26 293.29 782.34 296.22 782.72 298.25
  Q 786.02 315.47 788.80 331.96
  C 789.49 336.02 791.16 340.23 794.80 341.23
  Q 796.49 341.70 800.73 341.74"
/>
<path stroke="#ead3d3" vector-effect="non-scaling-stroke" d="
  M 800.73 341.74
  L 825.84 341.68"
/>
<path stroke="#f3eeeb" vector-effect="non-scaling-stroke" d="
  M 825.84 341.68
  Q 843.97 341.75 850.00 341.49
  Q 862.62 340.95 872.73 339.17
  Q 874.39 338.88 876.49 337.24
  A 1.00 0.98 73.0 0 0 876.88 336.49
  Q 876.94 334.49 876.32 332.49
  A 1.33 1.32 11.0 0 0 875.87 331.83
  C 871.67 328.44 865.66 327.36 860.38 327.11
  Q 848.19 326.53 829.75 326.12
  Q 827.36 326.07 824.94 326.06"
/>
<path stroke="#ead3d3" vector-effect="non-scaling-stroke" d="
  M 824.94 326.06
  L 804.96 326.27
  A 1.02 1.02 0.0 0 1 803.95 325.46
  L 801.31 313.01"
/>
<path stroke="#dfb9ba" vector-effect="non-scaling-stroke" d="
  M 801.31 313.01
  C 798.84 297.72 795.87 282.49 793.41 267.21
  Q 792.12 259.26 790.72 251.94
  Q 787.18 233.53 785.44 222.90
  Q 785.07 220.61 784.01 215.47
  Q 783.29 211.94 782.70 208.01
  Q 780.38 192.56 779.68 189.51
  Q 777.92 181.81 776.55 172.16
  C 775.70 166.17 773.74 159.84 766.60 161.09
  Q 762.92 161.73 761.51 164.71"
/>
<path stroke="#daa4a9" vector-effect="non-scaling-stroke" d="
  M 761.51 164.71
  C 758.91 169.55 758.72 176.81 757.82 180.34
  Q 754.39 193.72 752.18 207.44
  Q 751.92 209.07 748.95 220.68
  C 747.76 225.38 747.95 228.75 746.69 233.60
  C 743.08 247.56 740.79 262.57 737.62 276.24
  Q 736.32 281.88 734.03 294.03
  Q 733.82 295.18 732.99 298.60
  Q 730.58 308.54 729.36 316.45
  Q 728.74 320.46 726.50 329.17
  C 724.61 336.54 724.46 344.50 721.73 351.87
  A 0.31 0.31 0.0 0 1 721.15 351.85
  Q 719.34 345.65 718.49 339.76
  Q 717.62 333.69 714.74 321.92
  C 713.06 315.05 711.99 307.76 710.67 302.00
  C 707.61 288.63 705.49 277.31 702.77 265.29
  Q 700.85 256.78 699.81 249.55
  C 699.33 246.22 697.94 242.72 697.26 239.24
  Q 694.54 225.22 691.97 214.08
  Q 690.07 205.86 688.62 197.63
  Q 686.89 187.75 684.95 181.23
  C 683.00 174.65 684.75 159.93 673.29 161.28
  Q 669.07 161.77 668.06 164.91
  Q 666.96 168.35 666.36 171.58
  Q 661.94 195.51 661.77 196.06
  Q 660.92 198.84 659.73 206.49
  Q 658.36 215.35 653.37 239.50
  Q 652.41 244.18 652.12 246.69
  C 651.42 252.82 649.72 258.51 648.69 264.59
  C 647.39 272.26 646.90 276.11 645.31 282.52
  Q 644.09 287.44 642.84 297.16
  C 641.97 303.94 638.81 313.85 638.05 321.84
  Q 637.54 327.13 636.26 332.37
  A 0.75 0.75 0.0 0 1 635.53 332.94
  L 523.54 332.89"
/>
<path stroke="#dfb9ba" vector-effect="non-scaling-stroke" d="
  M 523.54 332.89
  L 352.01 332.96"
/>
<path stroke="#ead3d3" vector-effect="non-scaling-stroke" d="
  M 352.01 332.96
  L 250.71 332.95"
/>
<path stroke="#f3eeeb" vector-effect="non-scaling-stroke" d="
  M 250.71 332.95
  L 177.00 333.14
  A 3.66 3.66 0.0 0 0 173.98 334.73
  Q 170.51 339.78 174.60 345.40
  A 1.55 1.53 78.3 0 0 175.50 346.00
  Q 186.26 348.51 189.51 348.48
  Q 213.57 348.23 237.47 348.70"
/>
<path stroke="#f8fbf5" vector-effect="non-scaling-stroke" d="
  M 237.47 348.70
  Q 241.91 351.95 243.84 354.90
  Q 248.09 361.38 250.63 363.22
  C 254.44 365.98 261.79 370.34 263.73 374.16
  Q 267.43 381.48 274.82 386.68
  Q 283.09 392.49 292.62 397.25
  Q 297.67 399.78 300.38 401.52
  C 306.85 405.68 313.30 410.40 320.13 412.69
  Q 336.55 418.20 347.85 425.98
  Q 361.91 435.66 371.19 441.44
  C 376.02 444.45 380.87 445.58 386.36 444.81
  C 394.75 443.63 396.40 442.36 403.15 448.08
  Q 410.35 454.19 415.33 459.56
  C 423.38 468.22 423.81 482.42 422.04 493.53
  Q 420.50 503.24 414.06 508.08
  C 408.08 512.57 399.37 513.89 398.71 521.96
  C 397.63 535.18 405.52 540.86 416.01 547.00"
/>
<path stroke="#949897" vector-effect="non-scaling-stroke" d="
  M 155.98 314.89
  L 182.14 314.89
  A 0.80 0.80 0.0 0 0 182.94 314.09
  L 182.94 273.26
  A 1.11 1.10 0.5 0 1 184.07 272.16
  Q 198.83 272.43 210.75 272.15
  Q 227.68 271.75 240.24 261.12
  C 251.89 251.26 254.37 234.56 252.72 220.41
  Q 251.81 212.67 246.99 203.83
  C 243.00 196.53 235.03 190.74 227.36 187.98
  Q 217.79 184.54 211.23 184.48
  Q 180.72 184.21 156.45 184.40
  A 1.10 1.09 89.7 0 0 155.37 185.50
  L 155.37 314.28
  A 0.61 0.61 0.0 0 0 155.98 314.89"
/>
<path stroke="#949897" vector-effect="non-scaling-stroke" d="
  M 405.0828 185.1337
  A 0.59 0.59 0.0 0 0 404.4938 184.5427
  L 378.6339 184.4975
  A 0.59 0.59 0.0 0 0 378.0429 185.0865
  L 377.8172 314.3863
  A 0.59 0.59 0.0 0 0 378.4062 314.9773
  L 404.2661 315.0225
  A 0.59 0.59 0.0 0 0 404.8571 314.4335
  L 405.0828 185.1337"
/>
<path stroke="#949897" vector-effect="non-scaling-stroke" d="
  M 506.44 245.59
  Q 505.49 240.13 503.97 236.10
  C 500.37 226.56 488.51 218.92 478.57 217.01
  Q 464.59 214.34 448.69 217.67
  Q 440.17 219.46 432.99 225.75
  C 425.20 232.58 420.97 243.74 424.40 253.65
  Q 428.40 265.22 438.77 269.52
  Q 445.99 272.52 460.04 275.74
  C 465.38 276.96 473.68 276.45 478.57 280.90
  C 482.74 284.69 481.61 291.49 476.48 294.00
  C 469.54 297.39 463.04 296.99 455.91 295.01
  C 451.46 293.77 448.56 288.89 447.25 284.66
  A 0.58 0.58 0.0 0 0 446.67 284.25
  L 421.29 285.08
  A 0.37 0.37 0.0 0 0 420.93 285.47
  Q 421.63 294.94 427.49 301.88
  C 437.02 313.16 451.17 316.69 466.01 316.77
  Q 475.89 316.83 485.85 313.35
  Q 500.84 308.12 506.85 294.30
  C 508.50 290.51 508.36 288.21 508.32 283.71
  Q 508.23 270.86 497.39 263.81
  Q 491.32 259.86 485.33 258.43
  Q 481.36 257.48 460.83 253.44
  C 454.86 252.26 447.99 249.03 451.02 241.77
  C 453.49 235.84 460.51 234.92 466.77 235.16
  Q 478.12 235.60 481.26 245.68
  A 1.29 1.28 -9.5 0 0 482.53 246.58
  L 506.27 245.80
  A 0.18 0.18 0.0 0 0 506.44 245.59"
/>
<path stroke="#949897" vector-effect="non-scaling-stroke" d="
  M 612.05 286.54
  L 589.35 284.49
  A 1.32 1.32 0.0 0 0 588.04 285.25
  C 583.86 294.31 577.01 295.55 568.01 295.79
  Q 560.95 295.97 555.83 292.03
  C 549.15 286.89 547.48 281.09 546.81 273.29
  A 0.84 0.83 87.5 0 1 547.64 272.38
  L 612.75 272.38
  A 0.81 0.80 -87.2 0 0 613.55 271.65
  Q 615.27 254.29 608.11 238.37
  C 603.25 227.58 590.94 218.96 579.48 216.85
  Q 568.21 214.78 555.54 216.96
  C 545.36 218.72 534.43 226.54 528.81 235.30
  Q 527.38 237.53 523.92 245.29
  Q 521.76 250.16 521.14 255.99
  C 519.96 267.20 520.07 278.72 524.07 288.28
  C 527.05 295.41 530.47 301.46 536.32 305.96
  C 544.44 312.21 553.34 315.89 563.79 316.56
  C 580.41 317.62 594.96 314.11 606.15 301.51
  Q 611.19 295.82 612.69 287.38
  A 0.72 0.71 7.7 0 0 612.05 286.54"
/>
<path stroke="#949897" vector-effect="non-scaling-stroke" d="
  M 332.46 299.72
  L 332.46 313.59
  A 1.33 1.33 0.0 0 0 333.79 314.92
  L 357.37 314.92
  A 0.83 0.83 0.0 0 0 358.20 314.09
  L 358.20 217.89
  A 0.52 0.52 0.0 0 0 357.68 217.37
  L 331.74 217.37
  A 0.54 0.53 0.0 0 0 331.20 217.90
  Q 331.29 239.86 331.25 267.79
  Q 331.24 276.39 330.03 279.96
  Q 328.02 285.93 322.87 289.79
  C 318.78 292.85 315.09 292.90 310.24 292.71
  C 304.02 292.46 299.29 287.93 297.37 282.18
  Q 295.51 276.59 295.49 274.00
  Q 295.32 249.39 295.43 217.83
  A 0.46 0.46 0.0 0 0 294.97 217.37
  L 269.24 217.37
  A 0.43 0.43 0.0 0 0 268.81 217.80
  L 268.81 282.05
  A 12.37 12.32 39.7 0 0 269.03 284.37
  C 269.87 288.78 270.23 291.86 271.51 295.19
  Q 275.77 306.25 285.53 311.80
  Q 295.43 317.44 306.80 316.22
  Q 317.33 315.10 326.35 306.82
  Q 329.44 303.98 331.50 299.51
  A 0.50 0.50 0.0 0 1 332.46 299.72"
/>
<path stroke="#cc8f94" vector-effect="non-scaling-stroke" d="
  M 801.31 313.01
  Q 801.24 314.76 801.15 316.50
  C 800.96 320.30 799.21 324.80 799.19 329.12
  Q 799.18 332.52 799.62 333.43
  Q 801.79 337.90 800.73 341.74"
/>
<path stroke="#bd606a" vector-effect="non-scaling-stroke" d="
  M 765.05 219.74
  Q 764.67 210.60 763.92 206.50
  Q 761.36 192.50 761.53 188.43
  Q 762.03 176.64 761.51 164.71"
/>
<path stroke="#d6a2a6" vector-effect="non-scaling-stroke" d="
  M 648.76 345.42
  Q 645.58 348.20 643.00 348.21
  Q 574.48 348.44 505.95 348.40"
/>
<path stroke="#bd606a" vector-effect="non-scaling-stroke" d="
  M 505.95 348.40
  Q 510.74 339.05 519.40 333.33
  A 1.81 1.72 25.1 0 1 520.27 333.04
  L 523.54 332.89"
/>
<path stroke="#949897" vector-effect="non-scaling-stroke" d="
  M 182.82 208.79
  L 182.96 248.01
  A 1.71 1.71 0.0 0 0 184.67 249.72
  L 205.09 249.65
  A 19.97 19.59 -0.2 0 0 225.00 229.99
  L 224.98 226.53
  A 19.97 19.59 -0.2 0 0 204.95 207.01
  L 184.53 207.08
  A 1.71 1.71 0.0 0 0 182.82 208.79"
/>
<path stroke="#949897" vector-effect="non-scaling-stroke" d="
  M 567.82 255.32
  Q 576.89 255.31 587.74 255.49
  A 0.57 0.57 0.0 0 0 588.31 254.84
  C 586.69 244.01 579.23 235.77 567.80 235.79
  C 556.38 235.80 548.94 244.05 547.34 254.88
  A 0.57 0.57 0.0 0 0 547.91 255.53
  Q 558.76 255.33 567.82 255.32"
/>
<path stroke="#e1c4c5" vector-effect="non-scaling-stroke" d="
  M 824.94 326.06
  L 826.90 326.34
  A 0.52 0.51 7.0 0 1 827.34 326.90
  L 825.84 341.68"
/>
<path stroke="#e1c4c5" vector-effect="non-scaling-stroke" d="
  M 250.71 332.95
  L 256.06 348.46"
/>
<path stroke="#efece8" vector-effect="non-scaling-stroke" d="
  M 256.06 348.46
  L 237.47 348.70"
/>
<path stroke="#cc8f94" vector-effect="non-scaling-stroke" d="
  M 352.01 332.96
  Q 353.22 341.87 358.25 348.37"
/>
<path stroke="#e5d1d0" vector-effect="non-scaling-stroke" d="
  M 358.25 348.37
  L 256.06 348.46"
/>
<path stroke="#dab7b7" vector-effect="non-scaling-stroke" d="
  M 505.95 348.40
  L 358.25 348.37"
/>
</g>
<path fill="#fcfdf8" d="
  M 1024.00 0.00
  L 1024.00 547.00
  L 792.62 547.00
  C 804.28 545.58 817.19 544.93 828.11 541.16
  A 1.38 1.37 62.8 0 0 828.78 539.07
  Q 828.51 538.67 826.54 537.88
  Q 825.14 537.32 812.91 533.68
  Q 795.72 528.57 787.42 513.90
  C 783.76 507.42 782.59 499.64 778.88 493.34
  C 774.14 485.30 766.19 480.17 760.35 473.00
  Q 754.43 465.72 750.82 457.08
  Q 745.52 444.36 739.94 430.26
  Q 736.25 420.95 729.71 415.86
  C 720.13 408.41 713.63 403.57 707.65 394.12
  C 703.14 386.99 699.94 380.20 694.89 374.92
  Q 688.52 368.26 679.70 363.31
  Q 672.86 359.48 648.76 345.42
  Q 652.58 331.32 654.40 320.19
  Q 656.62 306.56 657.78 301.90
  Q 659.54 294.84 660.33 287.62
  Q 661.02 281.30 663.70 271.00
  C 664.80 266.79 665.06 261.26 665.87 257.63
  Q 670.77 235.36 674.30 211.77
  Q 674.45 210.71 674.94 210.03
  A 0.44 0.44 0.0 0 1 675.73 210.25
  Q 676.18 215.23 677.11 219.68
  C 679.83 232.71 682.16 241.71 684.44 254.41
  Q 685.50 260.37 688.10 270.57
  C 688.76 273.16 689.22 277.29 689.59 279.23
  Q 691.03 286.72 700.78 331.35
  C 701.99 336.90 702.36 341.07 703.67 345.87
  C 706.04 354.56 707.43 364.21 709.38 372.44
  Q 711.58 381.74 713.01 389.74
  C 714.01 395.27 718.04 399.70 724.23 397.94
  Q 728.19 396.81 729.17 393.14
  Q 729.89 390.41 737.02 355.66
  Q 738.53 348.29 739.25 345.40
  C 741.13 337.85 742.29 329.86 743.99 322.66
  C 746.82 310.65 748.60 299.34 751.40 287.60
  Q 752.37 283.53 753.81 275.33
  Q 754.78 269.79 756.43 263.09
  C 758.42 255.00 759.03 250.12 760.61 242.29
  Q 761.12 239.74 763.16 231.08
  Q 764.46 225.52 765.05 219.74
  Q 766.06 215.82 766.84 211.79
  Q 766.91 211.41 767.17 211.26
  A 0.29 0.29 0.0 0 1 767.60 211.45
  C 769.74 221.87 771.07 232.23 772.79 241.22
  Q 776.07 258.32 779.57 279.07
  Q 781.09 288.10 781.73 290.91
  C 782.26 293.29 782.34 296.22 782.72 298.25
  Q 786.02 315.47 788.80 331.96
  C 789.49 336.02 791.16 340.23 794.80 341.23
  Q 796.49 341.70 800.73 341.74
  L 825.84 341.68
  Q 843.97 341.75 850.00 341.49
  Q 862.62 340.95 872.73 339.17
  Q 874.39 338.88 876.49 337.24
  A 1.00 0.98 73.0 0 0 876.88 336.49
  Q 876.94 334.49 876.32 332.49
  A 1.33 1.32 11.0 0 0 875.87 331.83
  C 871.67 328.44 865.66 327.36 860.38 327.11
  Q 848.19 326.53 829.75 326.12
  Q 827.36 326.07 824.94 326.06
  L 804.96 326.27
  A 1.02 1.02 0.0 0 1 803.95 325.46
  L 801.31 313.01
  C 798.84 297.72 795.87 282.49 793.41 267.21
  Q 792.12 259.26 790.72 251.94
  Q 787.18 233.53 785.44 222.90
  Q 785.07 220.61 784.01 215.47
  Q 783.29 211.94 782.70 208.01
  Q 780.38 192.56 779.68 189.51
  Q 777.92 181.81 776.55 172.16
  C 775.70 166.17 773.74 159.84 766.60 161.09
  Q 762.92 161.73 761.51 164.71
  C 758.91 169.55 758.72 176.81 757.82 180.34
  Q 754.39 193.72 752.18 207.44
  Q 751.92 209.07 748.95 220.68
  C 747.76 225.38 747.95 228.75 746.69 233.60
  C 743.08 247.56 740.79 262.57 737.62 276.24
  Q 736.32 281.88 734.03 294.03
  Q 733.82 295.18 732.99 298.60
  Q 730.58 308.54 729.36 316.45
  Q 728.74 320.46 726.50 329.17
  C 724.61 336.54 724.46 344.50 721.73 351.87
  A 0.31 0.31 0.0 0 1 721.15 351.85
  Q 719.34 345.65 718.49 339.76
  Q 717.62 333.69 714.74 321.92
  C 713.06 315.05 711.99 307.76 710.67 302.00
  C 707.61 288.63 705.49 277.31 702.77 265.29
  Q 700.85 256.78 699.81 249.55
  C 699.33 246.22 697.94 242.72 697.26 239.24
  Q 694.54 225.22 691.97 214.08
  Q 690.07 205.86 688.62 197.63
  Q 686.89 187.75 684.95 181.23
  C 683.00 174.65 684.75 159.93 673.29 161.28
  Q 669.07 161.77 668.06 164.91
  Q 666.96 168.35 666.36 171.58
  Q 661.94 195.51 661.77 196.06
  Q 660.92 198.84 659.73 206.49
  Q 658.36 215.35 653.37 239.50
  Q 652.41 244.18 652.12 246.69
  C 651.42 252.82 649.72 258.51 648.69 264.59
  C 647.39 272.26 646.90 276.11 645.31 282.52
  Q 644.09 287.44 642.84 297.16
  C 641.97 303.94 638.81 313.85 638.05 321.84
  Q 637.54 327.13 636.26 332.37
  A 0.75 0.75 0.0 0 1 635.53 332.94
  L 523.54 332.89
  L 352.01 332.96
  L 250.71 332.95
  L 177.00 333.14
  A 3.66 3.66 0.0 0 0 173.98 334.73
  Q 170.51 339.78 174.60 345.40
  A 1.55 1.53 78.3 0 0 175.50 346.00
  Q 186.26 348.51 189.51 348.48
  Q 213.57 348.23 237.47 348.70
  Q 241.91 351.95 243.84 354.90
  Q 248.09 361.38 250.63 363.22
  C 254.44 365.98 261.79 370.34 263.73 374.16
  Q 267.43 381.48 274.82 386.68
  Q 283.09 392.49 292.62 397.25
  Q 297.67 399.78 300.38 401.52
  C 306.85 405.68 313.30 410.40 320.13 412.69
  Q 336.55 418.20 347.85 425.98
  Q 361.91 435.66 371.19 441.44
  C 376.02 444.45 380.87 445.58 386.36 444.81
  C 394.75 443.63 396.40 442.36 403.15 448.08
  Q 410.35 454.19 415.33 459.56
  C 423.38 468.22 423.81 482.42 422.04 493.53
  Q 420.50 503.24 414.06 508.08
  C 408.08 512.57 399.37 513.89 398.71 521.96
  C 397.63 535.18 405.52 540.86 416.01 547.00
  L 0.00 547.00
  L 0.00 0.00
  L 1024.00 0.00
  Z
  M 155.98 314.89
  L 182.14 314.89
  A 0.80 0.80 0.0 0 0 182.94 314.09
  L 182.94 273.26
  A 1.11 1.10 0.5 0 1 184.07 272.16
  Q 198.83 272.43 210.75 272.15
  Q 227.68 271.75 240.24 261.12
  C 251.89 251.26 254.37 234.56 252.72 220.41
  Q 251.81 212.67 246.99 203.83
  C 243.00 196.53 235.03 190.74 227.36 187.98
  Q 217.79 184.54 211.23 184.48
  Q 180.72 184.21 156.45 184.40
  A 1.10 1.09 89.7 0 0 155.37 185.50
  L 155.37 314.28
  A 0.61 0.61 0.0 0 0 155.98 314.89
  Z
  M 405.0828 185.1337
  A 0.59 0.59 0.0 0 0 404.4938 184.5427
  L 378.6339 184.4975
  A 0.59 0.59 0.0 0 0 378.0429 185.0865
  L 377.8172 314.3863
  A 0.59 0.59 0.0 0 0 378.4062 314.9773
  L 404.2661 315.0225
  A 0.59 0.59 0.0 0 0 404.8571 314.4335
  L 405.0828 185.1337
  Z
  M 506.44 245.59
  Q 505.49 240.13 503.97 236.10
  C 500.37 226.56 488.51 218.92 478.57 217.01
  Q 464.59 214.34 448.69 217.67
  Q 440.17 219.46 432.99 225.75
  C 425.20 232.58 420.97 243.74 424.40 253.65
  Q 428.40 265.22 438.77 269.52
  Q 445.99 272.52 460.04 275.74
  C 465.38 276.96 473.68 276.45 478.57 280.90
  C 482.74 284.69 481.61 291.49 476.48 294.00
  C 469.54 297.39 463.04 296.99 455.91 295.01
  C 451.46 293.77 448.56 288.89 447.25 284.66
  A 0.58 0.58 0.0 0 0 446.67 284.25
  L 421.29 285.08
  A 0.37 0.37 0.0 0 0 420.93 285.47
  Q 421.63 294.94 427.49 301.88
  C 437.02 313.16 451.17 316.69 466.01 316.77
  Q 475.89 316.83 485.85 313.35
  Q 500.84 308.12 506.85 294.30
  C 508.50 290.51 508.36 288.21 508.32 283.71
  Q 508.23 270.86 497.39 263.81
  Q 491.32 259.86 485.33 258.43
  Q 481.36 257.48 460.83 253.44
  C 454.86 252.26 447.99 249.03 451.02 241.77
  C 453.49 235.84 460.51 234.92 466.77 235.16
  Q 478.12 235.60 481.26 245.68
  A 1.29 1.28 -9.5 0 0 482.53 246.58
  L 506.27 245.80
  A 0.18 0.18 0.0 0 0 506.44 245.59
  Z
  M 612.05 286.54
  L 589.35 284.49
  A 1.32 1.32 0.0 0 0 588.04 285.25
  C 583.86 294.31 577.01 295.55 568.01 295.79
  Q 560.95 295.97 555.83 292.03
  C 549.15 286.89 547.48 281.09 546.81 273.29
  A 0.84 0.83 87.5 0 1 547.64 272.38
  L 612.75 272.38
  A 0.81 0.80 -87.2 0 0 613.55 271.65
  Q 615.27 254.29 608.11 238.37
  C 603.25 227.58 590.94 218.96 579.48 216.85
  Q 568.21 214.78 555.54 216.96
  C 545.36 218.72 534.43 226.54 528.81 235.30
  Q 527.38 237.53 523.92 245.29
  Q 521.76 250.16 521.14 255.99
  C 519.96 267.20 520.07 278.72 524.07 288.28
  C 527.05 295.41 530.47 301.46 536.32 305.96
  C 544.44 312.21 553.34 315.89 563.79 316.56
  C 580.41 317.62 594.96 314.11 606.15 301.51
  Q 611.19 295.82 612.69 287.38
  A 0.72 0.71 7.7 0 0 612.05 286.54
  Z
  M 332.46 299.72
  L 332.46 313.59
  A 1.33 1.33 0.0 0 0 333.79 314.92
  L 357.37 314.92
  A 0.83 0.83 0.0 0 0 358.20 314.09
  L 358.20 217.89
  A 0.52 0.52 0.0 0 0 357.68 217.37
  L 331.74 217.37
  A 0.54 0.53 0.0 0 0 331.20 217.90
  Q 331.29 239.86 331.25 267.79
  Q 331.24 276.39 330.03 279.96
  Q 328.02 285.93 322.87 289.79
  C 318.78 292.85 315.09 292.90 310.24 292.71
  C 304.02 292.46 299.29 287.93 297.37 282.18
  Q 295.51 276.59 295.49 274.00
  Q 295.32 249.39 295.43 217.83
  A 0.46 0.46 0.0 0 0 294.97 217.37
  L 269.24 217.37
  A 0.43 0.43 0.0 0 0 268.81 217.80
  L 268.81 282.05
  A 12.37 12.32 39.7 0 0 269.03 284.37
  C 269.87 288.78 270.23 291.86 271.51 295.19
  Q 275.77 306.25 285.53 311.80
  Q 295.43 317.44 306.80 316.22
  Q 317.33 315.10 326.35 306.82
  Q 329.44 303.98 331.50 299.51
  A 0.50 0.50 0.0 0 1 332.46 299.72
  Z"
/>
<path fill="#c1757b" d="
  M 801.31 313.01
  Q 801.24 314.76 801.15 316.50
  C 800.96 320.30 799.21 324.80 799.19 329.12
  Q 799.18 332.52 799.62 333.43
  Q 801.79 337.90 800.73 341.74
  Q 796.49 341.70 794.80 341.23
  C 791.16 340.23 789.49 336.02 788.80 331.96
  Q 786.02 315.47 782.72 298.25
  C 782.34 296.22 782.26 293.29 781.73 290.91
  Q 781.09 288.10 779.57 279.07
  Q 776.07 258.32 772.79 241.22
  C 771.07 232.23 769.74 221.87 767.60 211.45
  A 0.29 0.29 0.0 0 0 767.17 211.26
  Q 766.91 211.41 766.84 211.79
  Q 766.06 215.82 765.05 219.74
  Q 764.67 210.60 763.92 206.50
  Q 761.36 192.50 761.53 188.43
  Q 762.03 176.64 761.51 164.71
  Q 762.92 161.73 766.60 161.09
  C 773.74 159.84 775.70 166.17 776.55 172.16
  Q 777.92 181.81 779.68 189.51
  Q 780.38 192.56 782.70 208.01
  Q 783.29 211.94 784.01 215.47
  Q 785.07 220.61 785.44 222.90
  Q 787.18 233.53 790.72 251.94
  Q 792.12 259.26 793.41 267.21
  C 795.87 282.49 798.84 297.72 801.31 313.01
  Z"
/>
<path fill="#b84a59" d="
  M 761.51 164.71
  Q 762.03 176.64 761.53 188.43
  Q 761.36 192.50 763.92 206.50
  Q 764.67 210.60 765.05 219.74
  Q 764.46 225.52 763.16 231.08
  Q 761.12 239.74 760.61 242.29
  C 759.03 250.12 758.42 255.00 756.43 263.09
  Q 754.78 269.79 753.81 275.33
  Q 752.37 283.53 751.40 287.60
  C 748.60 299.34 746.82 310.65 743.99 322.66
  C 742.29 329.86 741.13 337.85 739.25 345.40
  Q 738.53 348.29 737.02 355.66
  Q 729.89 390.41 729.17 393.14
  Q 728.19 396.81 724.23 397.94
  C 718.04 399.70 714.01 395.27 713.01 389.74
  Q 711.58 381.74 709.38 372.44
  C 707.43 364.21 706.04 354.56 703.67 345.87
  C 702.36 341.07 701.99 336.90 700.78 331.35
  Q 691.03 286.72 689.59 279.23
  C 689.22 277.29 688.76 273.16 688.10 270.57
  Q 685.50 260.37 684.44 254.41
  C 682.16 241.71 679.83 232.71 677.11 219.68
  Q 676.18 215.23 675.73 210.25
  A 0.44 0.44 0.0 0 0 674.94 210.03
  Q 674.45 210.71 674.30 211.77
  Q 670.77 235.36 665.87 257.63
  C 665.06 261.26 664.80 266.79 663.70 271.00
  Q 661.02 281.30 660.33 287.62
  Q 659.54 294.84 657.78 301.90
  Q 656.62 306.56 654.40 320.19
  Q 652.58 331.32 648.76 345.42
  Q 645.58 348.20 643.00 348.21
  Q 574.48 348.44 505.95 348.40
  Q 510.74 339.05 519.40 333.33
  A 1.81 1.72 25.1 0 1 520.27 333.04
  L 523.54 332.89
  L 635.53 332.94
  A 0.75 0.75 0.0 0 0 636.26 332.37
  Q 637.54 327.13 638.05 321.84
  C 638.81 313.85 641.97 303.94 642.84 297.16
  Q 644.09 287.44 645.31 282.52
  C 646.90 276.11 647.39 272.26 648.69 264.59
  C 649.72 258.51 651.42 252.82 652.12 246.69
  Q 652.41 244.18 653.37 239.50
  Q 658.36 215.35 659.73 206.49
  Q 660.92 198.84 661.77 196.06
  Q 661.94 195.51 666.36 171.58
  Q 666.96 168.35 668.06 164.91
  Q 669.07 161.77 673.29 161.28
  C 684.75 159.93 683.00 174.65 684.95 181.23
  Q 686.89 187.75 688.62 197.63
  Q 690.07 205.86 691.97 214.08
  Q 694.54 225.22 697.26 239.24
  C 697.94 242.72 699.33 246.22 699.81 249.55
  Q 700.85 256.78 702.77 265.29
  C 705.49 277.31 707.61 288.63 710.67 302.00
  C 711.99 307.76 713.06 315.05 714.74 321.92
  Q 717.62 333.69 718.49 339.76
  Q 719.34 345.65 721.15 351.85
  A 0.31 0.31 0.0 0 0 721.73 351.87
  C 724.46 344.50 724.61 336.54 726.50 329.17
  Q 728.74 320.46 729.36 316.45
  Q 730.58 308.54 732.99 298.60
  Q 733.82 295.18 734.03 294.03
  Q 736.32 281.88 737.62 276.24
  C 740.79 262.57 743.08 247.56 746.69 233.60
  C 747.95 228.75 747.76 225.38 748.95 220.68
  Q 751.92 209.07 752.18 207.44
  Q 754.39 193.72 757.82 180.34
  C 758.72 176.81 758.91 169.55 761.51 164.71
  Z"
/>
<path fill="#2b3235" d="
  M 155.98 314.89
  A 0.61 0.61 0.0 0 1 155.37 314.28
  L 155.37 185.50
  A 1.10 1.09 89.7 0 1 156.45 184.40
  Q 180.72 184.21 211.23 184.48
  Q 217.79 184.54 227.36 187.98
  C 235.03 190.74 243.00 196.53 246.99 203.83
  Q 251.81 212.67 252.72 220.41
  C 254.37 234.56 251.89 251.26 240.24 261.12
  Q 227.68 271.75 210.75 272.15
  Q 198.83 272.43 184.07 272.16
  A 1.11 1.10 0.5 0 0 182.94 273.26
  L 182.94 314.09
  A 0.80 0.80 0.0 0 1 182.14 314.89
  L 155.98 314.89
  Z
  M 182.82 208.79
  L 182.96 248.01
  A 1.71 1.71 0.0 0 0 184.67 249.72
  L 205.09 249.65
  A 19.97 19.59 -0.2 0 0 225.00 229.99
  L 224.98 226.53
  A 19.97 19.59 -0.2 0 0 204.95 207.01
  L 184.53 207.08
  A 1.71 1.71 0.0 0 0 182.82 208.79
  Z"
/>
<rect fill="#2b3235" x="-13.52" y="-65.24" transform="translate(391.45,249.76) rotate(0.1)" width="27.04" height="130.48" rx="0.59"/>
<path fill="#fcfdf8" d="
  M 182.82 208.79
  A 1.71 1.71 0.0 0 1 184.53 207.08
  L 204.95 207.01
  A 19.97 19.59 -0.2 0 1 224.98 226.53
  L 225.00 229.99
  A 19.97 19.59 -0.2 0 1 205.09 249.65
  L 184.67 249.72
  A 1.71 1.71 0.0 0 1 182.96 248.01
  L 182.82 208.79
  Z"
/>
<path fill="#2b3235" d="
  M 506.44 245.59
  A 0.18 0.18 0.0 0 1 506.27 245.80
  L 482.53 246.58
  A 1.29 1.28 -9.5 0 1 481.26 245.68
  Q 478.12 235.60 466.77 235.16
  C 460.51 234.92 453.49 235.84 451.02 241.77
  C 447.99 249.03 454.86 252.26 460.83 253.44
  Q 481.36 257.48 485.33 258.43
  Q 491.32 259.86 497.39 263.81
  Q 508.23 270.86 508.32 283.71
  C 508.36 288.21 508.50 290.51 506.85 294.30
  Q 500.84 308.12 485.85 313.35
  Q 475.89 316.83 466.01 316.77
  C 451.17 316.69 437.02 313.16 427.49 301.88
  Q 421.63 294.94 420.93 285.47
  A 0.37 0.37 0.0 0 1 421.29 285.08
  L 446.67 284.25
  A 0.58 0.58 0.0 0 1 447.25 284.66
  C 448.56 288.89 451.46 293.77 455.91 295.01
  C 463.04 296.99 469.54 297.39 476.48 294.00
  C 481.61 291.49 482.74 284.69 478.57 280.90
  C 473.68 276.45 465.38 276.96 460.04 275.74
  Q 445.99 272.52 438.77 269.52
  Q 428.40 265.22 424.40 253.65
  C 420.97 243.74 425.20 232.58 432.99 225.75
  Q 440.17 219.46 448.69 217.67
  Q 464.59 214.34 478.57 217.01
  C 488.51 218.92 500.37 226.56 503.97 236.10
  Q 505.49 240.13 506.44 245.59
  Z"
/>
<path fill="#2b3235" d="
  M 612.69 287.38
  Q 611.19 295.82 606.15 301.51
  C 594.96 314.11 580.41 317.62 563.79 316.56
  C 553.34 315.89 544.44 312.21 536.32 305.96
  C 530.47 301.46 527.05 295.41 524.07 288.28
  C 520.07 278.72 519.96 267.20 521.14 255.99
  Q 521.76 250.16 523.92 245.29
  Q 527.38 237.53 528.81 235.30
  C 534.43 226.54 545.36 218.72 555.54 216.96
  Q 568.21 214.78 579.48 216.85
  C 590.94 218.96 603.25 227.58 608.11 238.37
  Q 615.27 254.29 613.55 271.65
  A 0.81 0.80 -87.2 0 1 612.75 272.38
  L 547.64 272.38
  A 0.84 0.83 87.5 0 0 546.81 273.29
  C 547.48 281.09 549.15 286.89 555.83 292.03
  Q 560.95 295.97 568.01 295.79
  C 577.01 295.55 583.86 294.31 588.04 285.25
  A 1.32 1.32 0.0 0 1 589.35 284.49
  L 612.05 286.54
  A 0.72 0.71 7.7 0 1 612.69 287.38
  Z
  M 567.82 255.32
  Q 576.89 255.31 587.74 255.49
  A 0.57 0.57 0.0 0 0 588.31 254.84
  C 586.69 244.01 579.23 235.77 567.80 235.79
  C 556.38 235.80 548.94 244.05 547.34 254.88
  A 0.57 0.57 0.0 0 0 547.91 255.53
  Q 558.76 255.33 567.82 255.32
  Z"
/>
<path fill="#2b3235" d="
  M 332.46 299.72
  A 0.50 0.50 0.0 0 0 331.50 299.51
  Q 329.44 303.98 326.35 306.82
  Q 317.33 315.10 306.80 316.22
  Q 295.43 317.44 285.53 311.80
  Q 275.77 306.25 271.51 295.19
  C 270.23 291.86 269.87 288.78 269.03 284.37
  A 12.37 12.32 39.7 0 1 268.81 282.05
  L 268.81 217.80
  A 0.43 0.43 0.0 0 1 269.24 217.37
  L 294.97 217.37
  A 0.46 0.46 0.0 0 1 295.43 217.83
  Q 295.32 249.39 295.49 274.00
  Q 295.51 276.59 297.37 282.18
  C 299.29 287.93 304.02 292.46 310.24 292.71
  C 315.09 292.90 318.78 292.85 322.87 289.79
  Q 328.02 285.93 330.03 279.96
  Q 331.24 276.39 331.25 267.79
  Q 331.29 239.86 331.20 217.90
  A 0.54 0.53 0.0 0 1 331.74 217.37
  L 357.68 217.37
  A 0.52 0.52 0.0 0 1 358.20 217.89
  L 358.20 314.09
  A 0.83 0.83 0.0 0 1 357.37 314.92
  L 333.79 314.92
  A 1.33 1.33 0.0 0 1 332.46 313.59
  L 332.46 299.72
  Z"
/>
<path fill="#fcfdf8" d="
  M 567.80 235.79
  C 579.23 235.77 586.69 244.01 588.31 254.84
  A 0.57 0.57 0.0 0 1 587.74 255.49
  Q 576.89 255.31 567.82 255.32
  Q 558.76 255.33 547.91 255.53
  A 0.57 0.57 0.0 0 1 547.34 254.88
  C 548.94 244.05 556.38 235.80 567.80 235.79
  Z"
/>
<path fill="#d7a9ad" d="
  M 824.94 326.06
  L 826.90 326.34
  A 0.52 0.51 7.0 0 1 827.34 326.90
  L 825.84 341.68
  L 800.73 341.74
  Q 801.79 337.90 799.62 333.43
  Q 799.18 332.52 799.19 329.12
  C 799.21 324.80 800.96 320.30 801.15 316.50
  Q 801.24 314.76 801.31 313.01
  L 803.95 325.46
  A 1.02 1.02 0.0 0 0 804.96 326.27
  L 824.94 326.06
  Z"
/>
<path fill="#eadfdd" d="
  M 825.84 341.68
  L 827.34 326.90
  A 0.52 0.51 7.0 0 0 826.90 326.34
  L 824.94 326.06
  Q 827.36 326.07 829.75 326.12
  Q 848.19 326.53 860.38 327.11
  C 865.66 327.36 871.67 328.44 875.87 331.83
  A 1.33 1.32 11.0 0 1 876.32 332.49
  Q 876.94 334.49 876.88 336.49
  A 1.00 0.98 73.0 0 1 876.49 337.24
  Q 874.39 338.88 872.73 339.17
  Q 862.62 340.95 850.00 341.49
  Q 843.97 341.75 825.84 341.68
  Z"
/>
<path fill="#eadfdd" d="
  M 250.71 332.95
  L 256.06 348.46
  L 237.47 348.70
  Q 213.57 348.23 189.51 348.48
  Q 186.26 348.51 175.50 346.00
  A 1.55 1.53 78.3 0 1 174.60 345.40
  Q 170.51 339.78 173.98 334.73
  A 3.66 3.66 0.0 0 1 177.00 333.14
  L 250.71 332.95
  Z"
/>
<path fill="#d7a9ad" d="
  M 352.01 332.96
  Q 353.22 341.87 358.25 348.37
  L 256.06 348.46
  L 250.71 332.95
  L 352.01 332.96
  Z"
/>
<path fill="#c1757b" d="
  M 523.54 332.89
  L 520.27 333.04
  A 1.81 1.72 25.1 0 0 519.40 333.33
  Q 510.74 339.05 505.95 348.40
  L 358.25 348.37
  Q 353.22 341.87 352.01 332.96
  L 523.54 332.89
  Z"
/>
<path fill="#f3f9f2" d="
  M 792.62 547.00
  L 416.01 547.00
  C 405.52 540.86 397.63 535.18 398.71 521.96
  C 399.37 513.89 408.08 512.57 414.06 508.08
  Q 420.50 503.24 422.04 493.53
  C 423.81 482.42 423.38 468.22 415.33 459.56
  Q 410.35 454.19 403.15 448.08
  C 396.40 442.36 394.75 443.63 386.36 444.81
  C 380.87 445.58 376.02 444.45 371.19 441.44
  Q 361.91 435.66 347.85 425.98
  Q 336.55 418.20 320.13 412.69
  C 313.30 410.40 306.85 405.68 300.38 401.52
  Q 297.67 399.78 292.62 397.25
  Q 283.09 392.49 274.82 386.68
  Q 267.43 381.48 263.73 374.16
  C 261.79 370.34 254.44 365.98 250.63 363.22
  Q 248.09 361.38 243.84 354.90
  Q 241.91 351.95 237.47 348.70
  L 256.06 348.46
  L 358.25 348.37
  L 505.95 348.40
  Q 574.48 348.44 643.00 348.21
  Q 645.58 348.20 648.76 345.42
  Q 672.86 359.48 679.70 363.31
  Q 688.52 368.26 694.89 374.92
  C 699.94 380.20 703.14 386.99 707.65 394.12
  C 713.63 403.57 720.13 408.41 729.71 415.86
  Q 736.25 420.95 739.94 430.26
  Q 745.52 444.36 750.82 457.08
  Q 754.43 465.72 760.35 473.00
  C 766.19 480.17 774.14 485.30 778.88 493.34
  C 782.59 499.64 783.76 507.42 787.42 513.90
  Q 795.72 528.57 812.91 533.68
  Q 825.14 537.32 826.54 537.88
  Q 828.51 538.67 828.78 539.07
  A 1.38 1.37 62.8 0 1 828.11 541.16
  C 817.19 544.93 804.28 545.58 792.62 547.00
  Z"
/>
</svg>
