<svg viewBox="0 0 64 64" fill="none" xmlns="http://www.w3.org/2000/svg">
  <!-- CREATIVE 07: Circuit Board Pulse - Tech + Medical Fusion -->
  <defs>
    <linearGradient id="rose07" x1="0%" y1="0%" x2="100%" y2="0%">
      <stop offset="0%" stop-color="#E11D48"/>
      <stop offset="100%" stop-color="#F43F5E"/>
    </linearGradient>
  </defs>
  <!-- Main pulse with circuit nodes -->
  <path 
    d="M4 32 L14 32 L18 22 L22 42 L26 16 L32 48 L38 16 L42 42 L46 22 L50 32 L60 32"
    stroke="url(#rose07)" 
    stroke-width="2.5" 
    stroke-linecap="square" 
    stroke-linejoin="miter"
    fill="none"
  />
  <!-- Circuit nodes -->
  <rect x="2" y="30" width="4" height="4" fill="#E11D48"/>
  <rect x="30" y="46" width="4" height="4" fill="#E11D48"/>
  <rect x="58" y="30" width="4" height="4" fill="#E11D48"/>
  <!-- Circuit traces -->
  <path d="M4 36 L4 44 L14 44" stroke="#E11D48" stroke-width="1" stroke-opacity="0.4"/>
  <path d="M60 36 L60 44 L50 44" stroke="#E11D48" stroke-width="1" stroke-opacity="0.4"/>
  <path d="M32 52 L32 58" stroke="#E11D48" stroke-width="1" stroke-opacity="0.4"/>
  <!-- Small circuit dots -->
  <circle cx="14" cy="44" r="1.5" fill="#E11D48" fill-opacity="0.5"/>
  <circle cx="50" cy="44" r="1.5" fill="#E11D48" fill-opacity="0.5"/>
  <circle cx="32" cy="58" r="1.5" fill="#E11D48" fill-opacity="0.5"/>
</svg>
