<svg viewBox="0 0 64 64" fill="none" xmlns="http://www.w3.org/2000/svg">
  <!-- CREATIVE 12: Waveform with Particle Trail -->
  <defs>
    <linearGradient id="rose12" x1="0%" y1="0%" x2="100%" y2="0%">
      <stop offset="0%" stop-color="#E11D48" stop-opacity="0.2"/>
      <stop offset="50%" stop-color="#E11D48"/>
      <stop offset="100%" stop-color="#E11D48" stop-opacity="0.2"/>
    </linearGradient>
  </defs>
  <!-- Particle trail -->
  <circle cx="6" cy="32" r="1" fill="#E11D48" fill-opacity="0.2"/>
  <circle cx="10" cy="32" r="1.2" fill="#E11D48" fill-opacity="0.3"/>
  <circle cx="14" cy="30" r="1" fill="#E11D48" fill-opacity="0.4"/>
  <circle cx="17" cy="26" r="1.3" fill="#E11D48" fill-opacity="0.5"/>
  <circle cx="20" cy="36" r="1" fill="#E11D48" fill-opacity="0.6"/>
  <circle cx="24" cy="22" r="1.5" fill="#E11D48" fill-opacity="0.7"/>
  <circle cx="28" cy="40" r="1.2" fill="#E11D48" fill-opacity="0.8"/>
  <!-- Main center peak with glow -->
  <ellipse cx="32" cy="14" rx="3" ry="3" fill="#E11D48" fill-opacity="0.15"/>
  <circle cx="32" cy="14" r="2" fill="#E11D48"/>
  <!-- Continue particles -->
  <circle cx="36" cy="40" r="1.2" fill="#E11D48" fill-opacity="0.8"/>
  <circle cx="40" cy="22" r="1.5" fill="#E11D48" fill-opacity="0.7"/>
  <circle cx="44" cy="36" r="1" fill="#E11D48" fill-opacity="0.6"/>
  <circle cx="47" cy="26" r="1.3" fill="#E11D48" fill-opacity="0.5"/>
  <circle cx="50" cy="30" r="1" fill="#E11D48" fill-opacity="0.4"/>
  <circle cx="54" cy="32" r="1.2" fill="#E11D48" fill-opacity="0.3"/>
  <circle cx="58" cy="32" r="1" fill="#E11D48" fill-opacity="0.2"/>
  <!-- Connecting pulse line -->
  <path 
    d="M6 32 L14 32 L18 24 L22 40 L26 18 L32 14 L38 18 L42 40 L46 24 L50 32 L58 32"
    stroke="url(#rose12)" 
    stroke-width="1.5" 
    stroke-linecap="round" 
    stroke-linejoin="round"
    fill="none"
  />
</svg>
