<svg viewBox="0 0 200 64" fill="none" xmlns="http://www.w3.org/2000/svg">
  <!-- PulseM V4: Uppercase PULSE with tight kerning flowing into M -->
  <defs>
    <linearGradient id="roseText4" x1="0%" y1="0%" x2="100%" y2="0%">
      <stop offset="0%" stop-color="#BE123C"/>
      <stop offset="50%" stop-color="#E11D48"/>
      <stop offset="100%" stop-color="#F43F5E"/>
    </linearGradient>
  </defs>
  
  <!-- "PULSE" uppercase, tight -->
  <text x="6" y="44" 
    font-family="system-ui, -apple-system, sans-serif" 
    font-size="28" 
    font-weight="800"
    letter-spacing="0.12em"
    fill="url(#roseText4)">PULSE</text>
  
  <!-- Fragmented M with connecting baseline -->
  <g transform="translate(112, 0)">
    <!-- Baseline connector -->
    <path d="M-8 32 L4 32" stroke="#E11D48" stroke-width="2.5" stroke-linecap="round" stroke-opacity="0.5"/>
    
    <path d="M4 32 L11 32" stroke="#E11D48" stroke-width="3" stroke-linecap="round"/>
    <path d="M13 32 L17 22" stroke="#E11D48" stroke-width="3" stroke-linecap="round"/>
    <path d="M18 24 L22 40" stroke="#E11D48" stroke-width="3" stroke-linecap="round"/>
    <path d="M23 38 L27 14" stroke="#E11D48" stroke-width="3" stroke-linecap="round"/>
    <path d="M28 16 L32 50" stroke="#E11D48" stroke-width="4" stroke-linecap="round"/>
    <path d="M33 48 L37 14" stroke="#E11D48" stroke-width="3" stroke-linecap="round"/>
    <path d="M38 16 L42 38" stroke="#E11D48" stroke-width="3" stroke-linecap="round"/>
    <path d="M43 36 L47 22" stroke="#E11D48" stroke-width="3" stroke-linecap="round"/>
    <path d="M48 24 L52 32" stroke="#E11D48" stroke-width="3" stroke-linecap="round"/>
    <path d="M54 32 L60 32" stroke="#E11D48" stroke-width="3" stroke-linecap="round"/>
    <!-- Glitch echoes -->
    <path d="M28 18 L32 48" stroke="#E11D48" stroke-width="2" stroke-linecap="round" stroke-opacity="0.25" transform="translate(2.5, -1.5)"/>
    <path d="M33 48 L37 14" stroke="#E11D48" stroke-width="1.5" stroke-linecap="round" stroke-opacity="0.15" transform="translate(-1.5, 1)"/>
  </g>
</svg>
