<svg viewBox="0 0 64 64" fill="none" xmlns="http://www.w3.org/2000/svg">
  <!-- CREATIVE 08: Layered Depth Pulse - 3D Perspective -->
  <defs>
    <linearGradient id="rose08" x1="0%" y1="0%" x2="0%" y2="100%">
      <stop offset="0%" stop-color="#E11D48"/>
      <stop offset="100%" stop-color="#881337"/>
    </linearGradient>
  </defs>
  <!-- Back layer (shadow) -->
  <path 
    d="M8 36 L16 36 L20 28 L24 44 L28 20 L32 48 L36 20 L40 44 L44 28 L48 36 L56 36"
    stroke="#E11D48" 
    stroke-width="3" 
    stroke-linecap="round" 
    stroke-linejoin="round"
    stroke-opacity="0.15"
    fill="none"
  />
  <!-- Middle layer -->
  <path 
    d="M6 33 L14 33 L18 25 L22 41 L26 17 L32 45 L38 17 L42 41 L46 25 L50 33 L58 33"
    stroke="#E11D48" 
    stroke-width="3" 
    stroke-linecap="round" 
    stroke-linejoin="round"
    stroke-opacity="0.4"
    fill="none"
  />
  <!-- Front layer (main) -->
  <path 
    d="M4 30 L12 30 L16 22 L20 38 L24 14 L32 42 L40 14 L44 38 L48 22 L52 30 L60 30"
    stroke="url(#rose08)" 
    stroke-width="3.5" 
    stroke-linecap="round" 
    stroke-linejoin="round"
    fill="none"
  />
</svg>
