<svg viewBox="0 0 64 64" fill="none" xmlns="http://www.w3.org/2000/svg">
  <!-- CREATIVE 10: Origami/Geometric Faceted Pulse -->
  <defs>
    <linearGradient id="rose10a" x1="0%" y1="0%" x2="100%" y2="100%">
      <stop offset="0%" stop-color="#F43F5E"/>
      <stop offset="100%" stop-color="#E11D48"/>
    </linearGradient>
    <linearGradient id="rose10b" x1="100%" y1="0%" x2="0%" y2="100%">
      <stop offset="0%" stop-color="#E11D48"/>
      <stop offset="100%" stop-color="#9F1239"/>
    </linearGradient>
  </defs>
  <!-- Faceted geometric pulse - filled triangular segments -->
  <polygon points="4,32 14,32 18,20" fill="url(#rose10a)" fill-opacity="0.3"/>
  <polygon points="14,32 18,20 24,32" fill="url(#rose10b)" fill-opacity="0.5"/>
  <polygon points="18,20 24,32 24,44" fill="url(#rose10a)" fill-opacity="0.7"/>
  <polygon points="24,32 24,44 32,32" fill="url(#rose10b)" fill-opacity="0.4"/>
  <polygon points="24,44 32,32 32,8" fill="url(#rose10a)" fill-opacity="0.9"/>
  <polygon points="32,32 32,8 40,32" fill="url(#rose10b)" fill-opacity="0.7"/>
  <polygon points="32,8 40,32 40,44" fill="url(#rose10a)" fill-opacity="0.5"/>
  <polygon points="40,32 40,44 46,20" fill="url(#rose10b)" fill-opacity="0.6"/>
  <polygon points="40,44 46,20 50,32" fill="url(#rose10a)" fill-opacity="0.4"/>
  <polygon points="46,20 50,32 60,32" fill="url(#rose10b)" fill-opacity="0.3"/>
  <!-- Main pulse outline -->
  <path 
    d="M4 32 L14 32 L18 20 L24 44 L32 8 L40 44 L46 20 L50 32 L60 32"
    stroke="#E11D48" 
    stroke-width="2" 
    stroke-linecap="round" 
    stroke-linejoin="round"
    fill="none"
  />
</svg>
