<svg viewBox="0 0 220 64" fill="none" xmlns="http://www.w3.org/2000/svg">
  <!-- PulseM V3: Fragmented letters matching the M style -->
  <defs>
    <linearGradient id="roseText3" x1="0%" y1="0%" x2="100%" y2="0%">
      <stop offset="0%" stop-color="#E11D48"/>
      <stop offset="100%" stop-color="#F43F5E"/>
    </linearGradient>
  </defs>
  
  <!-- P - fragmented -->
  <path d="M12 48 L12 16" stroke="#E11D48" stroke-width="3.5" stroke-linecap="round"/>
  <path d="M12 16 L22 16" stroke="#E11D48" stroke-width="3" stroke-linecap="round"/>
  <path d="M24 17 L26 24" stroke="#E11D48" stroke-width="3" stroke-linecap="round"/>
  <path d="M25 26 L22 32" stroke="#E11D48" stroke-width="3" stroke-linecap="round"/>
  <path d="M20 32 L12 32" stroke="#E11D48" stroke-width="3" stroke-linecap="round"/>
  
  <!-- u - fragmented -->
  <path d="M34 24 L34 42" stroke="#E11D48" stroke-width="3" stroke-linecap="round"/>
  <path d="M34 44 L40 48" stroke="#E11D48" stroke-width="3" stroke-linecap="round"/>
  <path d="M42 47 L46 42" stroke="#E11D48" stroke-width="3" stroke-linecap="round"/>
  <path d="M46 40 L46 24" stroke="#E11D48" stroke-width="3" stroke-linecap="round"/>
  
  <!-- l - fragmented -->
  <path d="M54 16 L54 46" stroke="#E11D48" stroke-width="3" stroke-linecap="round"/>
  <path d="M54 48 L58 48" stroke="#E11D48" stroke-width="2.5" stroke-linecap="round"/>
  
  <!-- s - fragmented -->
  <path d="M72 28 L66 24" stroke="#E11D48" stroke-width="3" stroke-linecap="round"/>
  <path d="M65 26 L64 32" stroke="#E11D48" stroke-width="3" stroke-linecap="round"/>
  <path d="M65 34 L72 38" stroke="#E11D48" stroke-width="3" stroke-linecap="round"/>
  <path d="M72 40 L70 46" stroke="#E11D48" stroke-width="3" stroke-linecap="round"/>
  <path d="M68 47 L62 44" stroke="#E11D48" stroke-width="3" stroke-linecap="round"/>
  
  <!-- e - fragmented -->
  <path d="M80 36 L92 36" stroke="#E11D48" stroke-width="3" stroke-linecap="round"/>
  <path d="M80 36 L80 28" stroke="#E11D48" stroke-width="3" stroke-linecap="round"/>
  <path d="M81 26 L88 24" stroke="#E11D48" stroke-width="3" stroke-linecap="round"/>
  <path d="M80 38 L80 44" stroke="#E11D48" stroke-width="3" stroke-linecap="round"/>
  <path d="M82 46 L90 48" stroke="#E11D48" stroke-width="3" stroke-linecap="round"/>
  
  <!-- Fragmented M pulse -->
  <g transform="translate(100, 0)">
    <path d="M8 32 L15 32" stroke="#E11D48" stroke-width="3" stroke-linecap="round"/>
    <path d="M17 32 L21 22" stroke="#E11D48" stroke-width="3" stroke-linecap="round"/>
    <path d="M22 24 L26 40" stroke="#E11D48" stroke-width="3" stroke-linecap="round"/>
    <path d="M27 38 L31 14" stroke="#E11D48" stroke-width="3.5" stroke-linecap="round"/>
    <path d="M32 16 L36 50" stroke="#E11D48" stroke-width="4" stroke-linecap="round"/>
    <path d="M37 48 L41 14" stroke="#E11D48" stroke-width="3.5" stroke-linecap="round"/>
    <path d="M42 16 L46 38" stroke="#E11D48" stroke-width="3" stroke-linecap="round"/>
    <path d="M47 36 L51 22" stroke="#E11D48" stroke-width="3" stroke-linecap="round"/>
    <path d="M52 24 L56 32" stroke="#E11D48" stroke-width="3" stroke-linecap="round"/>
    <path d="M58 32 L65 32" stroke="#E11D48" stroke-width="3" stroke-linecap="round"/>
    <!-- Glitch echo -->
    <path d="M32 18 L36 48" stroke="#E11D48" stroke-width="2" stroke-linecap="round" stroke-opacity="0.3" transform="translate(2, -1)"/>
  </g>
</svg>
